<svg xmlns="http://www.w3.org/2000/svg" width="1500" height="840" viewBox="0 0 1500 840"><style>.t{font:800 31px 'Pretendard',Arial;fill:#a61923}.r{font:800 25px 'Pretendard',Arial;fill:white}.h{font:800 23px 'Pretendard',Arial;fill:#222}.s{font:500 18px 'Pretendard',Arial;fill:#606060}.n{font:800 20px 'Pretendard',Arial;fill:white}.f{font:800 19px 'Pretendard',Arial;fill:#a61923}</style><rect width="1500" height="840" fill="white"/><rect x="60" y="45" width="640" height="705" rx="13" fill="white" stroke="#a61923" stroke-width="4"/><rect x="60" y="45" width="640" height="70" rx="12" fill="#fae9eb"/><text x="130" y="88" class="t">공격형 BT 전략</text><rect x="800" y="45" width="640" height="705" rx="13" fill="white" stroke="#a61923" stroke-width="4"/><rect x="800" y="45" width="640" height="70" rx="12" fill="#fae9eb"/><text x="870" y="88" class="t">수비형 BT 전략</text><rect x="250" y="150" width="260" height="52" rx="8" fill="#a61923"/><text x="300" y="184" class="r">Root Selector</text><line x1="380" y1="202" x2="380" y2="230" stroke="#555" stroke-width="4"/><polygon points="380,250 368,225 392,225" fill="#555"/><rect x="120" y="250" width="520" height="90" rx="8" fill="white" stroke="#a61923" stroke-width="3"/><circle cx="162" cy="295" r="22" fill="#981b25"/><text x="155" y="302" class="n">1</text><text x="210" y="285" class="h">체력 낮음 + 회피 가능?</text><text x="210" y="315" class="s">뒤로 회피</text><line x1="380" y1="340" x2="380" y2="375" stroke="#555" stroke-width="4"/><polygon points="380,395 368,370 392,370" fill="#555"/><rect x="120" y="395" width="520" height="90" rx="8" fill="white" stroke="#a61923" stroke-width="3"/><circle cx="162" cy="440" r="22" fill="#b11d2a"/><text x="155" y="447" class="n">2</text><text x="210" y="430" class="h">공격 가능 + 사거리 내?</text><text x="210" y="460" class="s">대상 바라보기, 공격</text><line x1="380" y1="485" x2="380" y2="520" stroke="#555" stroke-width="4"/><polygon points="380,540 368,515 392,515" fill="#555"/><rect x="120" y="540" width="520" height="90" rx="8" fill="white" stroke="#246ea3" stroke-width="3"/><circle cx="162" cy="585" r="22" fill="#246ea3"/><text x="155" y="592" class="n">3</text><text x="210" y="575" class="h">Fallback</text><text x="210" y="605" class="s">대상 방향으로 이동</text><rect x="990" y="140" width="260" height="52" rx="8" fill="#a61923"/><text x="1040" y="174" class="r">Root Selector</text><line x1="1120" y1="192" x2="1120" y2="215" stroke="#555" stroke-width="4"/><polygon points="1120,235 1108,210 1132,210" fill="#555"/><rect x="850" y="235" width="540" height="72" rx="8" fill="white" stroke="#a61923" stroke-width="3"/><circle cx="890" cy="271" r="21" fill="#981b25"/><text x="883" y="278" class="n">1</text><text x="940" y="262" class="h">체력 낮음 + 회피 가능?</text><text x="940" y="288" class="s">뒤로 회피</text><line x1="1120" y1="307" x2="1120" y2="330" stroke="#555" stroke-width="4"/><polygon points="1120,350 1108,325 1132,325" fill="#555"/><rect x="850" y="350" width="540" height="72" rx="8" fill="white" stroke="#a61923" stroke-width="3"/><circle cx="890" cy="386" r="21" fill="#b11d2a"/><text x="883" y="393" class="n">2</text><text x="940" y="377" class="h">위협 감지 + 방어 가능?</text><text x="940" y="403" class="s">방어</text><line x1="1120" y1="422" x2="1120" y2="445" stroke="#555" stroke-width="4"/><polygon points="1120,465 1108,440 1132,440" fill="#555"/><rect x="850" y="465" width="540" height="72" rx="8" fill="white" stroke="#a61923" stroke-width="3"/><circle cx="890" cy="501" r="21" fill="#981b25"/><text x="883" y="508" class="n">3</text><text x="940" y="492" class="h">근접 + 회피 가능?</text><text x="940" y="518" class="s">뒤로 회피</text><line x1="1120" y1="537" x2="1120" y2="560" stroke="#555" stroke-width="4"/><polygon points="1120,580 1108,555 1132,555" fill="#555"/><rect x="850" y="580" width="540" height="72" rx="8" fill="white" stroke="#26834c" stroke-width="3"/><circle cx="890" cy="616" r="21" fill="#26834c"/><text x="883" y="623" class="n">4</text><text x="940" y="607" class="h">근접 + 공격 가능?</text><text x="940" y="633" class="s">반격</text><line x1="1120" y1="652" x2="1120" y2="675" stroke="#555" stroke-width="4"/><polygon points="1120,695 1108,670 1132,670" fill="#555"/><rect x="850" y="695" width="540" height="72" rx="8" fill="white" stroke="#246ea3" stroke-width="3"/><circle cx="890" cy="731" r="21" fill="#246ea3"/><text x="883" y="738" class="n">5</text><text x="940" y="722" class="h">Fallback</text><text x="940" y="748" class="s">거리 유지</text><rect x="310" y="788" width="880" height="40" rx="9" fill="#fae9eb"/><text x="455" y="814" class="f">StudentBTStrategy 사용 시 같은 Agent의 Baseline BT는 비활성화</text></svg>